<svg xmlns="http://www.w3.org/2000/svg" width="16" height="16" fill="none" viewBox="0 0 13 13"><path fill="#D27C4A" d="M8.09 3.902 4.84 2.277 2.167 3.423v6.85L4.91 9.099l3.25 1.625 2.673-1.146v-6.85L8.09 3.901ZM1.083 2.708l3.792-1.625 3.25 1.625 3.414-1.463a.27.27 0 0 1 .378.25v8.797l-3.792 1.625-3.25-1.625-3.414 1.463a.27.27 0 0 1-.378-.25V2.708Zm2.167 3.25h1.083v1.084H3.25V5.958Zm2.167 0H6.5v1.084H5.417V5.958Zm3.249-.034.67-.67.574.574-.67.67.67.671-.574.575-.67-.67-.67.67-.575-.575.67-.67-.67-.67.574-.575.67.67Z"/></svg>
